<svg xmlns="http://www.w3.org/2000/svg" color-interpolation-filters="sRGB" style="margin:auto" version="1.0" viewBox="0 0 340 250"><rect width="100%" height="100%" fill="#fff" class="background"/><g fill="#333" class="icon-text-wrapper icon-svg-group iconsvg"><g class="iconsvg-imagesvg" transform="translate(140 69.91)"><path fill="none" d="M0 0h60v39.64H0z" class="image-rect"/><svg width="60" height="39.64" class="image-svg-svg primary" style="overflow:visible"><svg xmlns="http://www.w3.org/2000/svg" viewBox="0 -0.01 214.54 141.75"><path fill="#147970" d="M65.62 141.74c-2.63-5.53-5-10.41-7.28-15.31l-54-115.22Q2.39 7 .41 2.89C-.5 1 .11 0 2.19 0 13.8 0 25.41 0 37 .17c1.18 0 2.83 1.45 3.43 2.64 9.76 19.49 19.38 39.05 29 58.59 5.62 11.37 11.28 22.72 16.8 34.13a5.07 5.07 0 0 1 .33 3.83c-6.49 13.49-13.13 26.9-19.74 40.32-.15.44-.44.83-1.2 2.06zm78.75-.32a31.67 31.67 0 0 1-2-3.16q-19.77-42-39.47-84Q91.09 29.11 79.31 3.92C77.69.48 78 0 81.74 0c10.92 0 21.84.07 32.76 0a4.52 4.52 0 0 1 4.59 3q22.51 45.77 45.15 91.47c1.14 2.29 1.44 4.18.2 6.64-6.48 12.84-12.75 25.77-19.1 38.67-.21.38-.47.78-.97 1.64z"/><path fill="#fcbd02" d="M185.07 59c-.32-1.91-.72-3.81-.93-5.73-1.08-9.86-2.2-19.71-3.1-29.58a6.29 6.29 0 0 0-3.17-5.23c-8-5.21-15.8-10.57-23.68-15.88-.6-.4-1.13-.9-2.45-2 1.83-.23 2.72-.44 3.62-.44l56.22-.06c3.09 0 3.58.71 2.31 3.25l-27 54.22c-.25.5-.57 1-.86 1.46z"/></svg></svg></g><g><path d="m121.91 119.1 8.73 34.77 7.11-34.78h7.97l-10.67 46.21h-7.68l-8.79-33.74-8.98 33.74h-7.7l-10.68-46.2h7.97l7.17 34.71 8.83-34.72h6.72Zm56.28 46.2h-7.87q-.5-.98-.89-3.2-3.69 3.83-9.02 3.83-5.17 0-8.44-2.95-3.27-2.95-3.27-7.3 0-5.49 4.08-8.42 4.08-2.94 11.66-2.94h4.73v-2.25q0-2.67-1.49-4.27-1.49-1.6-4.54-1.6-2.63 0-4.3 1.31-1.7 1.32-1.7 3.35h-7.7q0-2.82 1.86-5.28 1.88-2.46 5.1-3.86 3.22-1.4 7.2-1.4 6.02 0 9.6 3.04 3.6 3.03 3.7 8.52v15.5q0 4.62 1.3 7.38v.54Zm-16.35-5.55q2.3 0 4.3-1.12 2.02-1.1 3.03-2.98v-6.47h-4.16q-4.28 0-6.44 1.5-2.16 1.48-2.16 4.21 0 2.22 1.48 3.54 1.48 1.32 3.95 1.32Zm51.51 5.55h-7.87q-.5-.98-.89-3.2-3.68 3.83-9 3.83-5.18 0-8.45-2.95-3.27-2.95-3.27-7.3 0-5.49 4.08-8.42 4.07-2.94 11.66-2.94h4.73v-2.25q0-2.67-1.49-4.27-1.49-1.6-4.54-1.6-2.64 0-4.32 1.31-1.68 1.32-1.68 3.35h-7.7q0-2.82 1.86-5.28 1.87-2.46 5.1-3.86 3.22-1.4 7.18-1.4 6.03 0 9.62 3.04 3.6 3.03 3.68 8.52v15.5q0 4.62 1.3 7.38v.54Zm-16.34-5.55q2.28 0 4.3-1.12 2.01-1.1 3.03-2.98v-6.47h-4.16q-4.28 0-6.44 1.5-2.16 1.48-2.16 4.21 0 2.22 1.48 3.54 1.47 1.32 3.95 1.32Zm21.67-11.87q0-7.94 3.7-12.75 3.67-4.8 9.86-4.8 5.46 0 8.82 3.8v-17.58h7.71v48.75h-6.98l-.38-3.55q-3.46 4.18-9.24 4.18-6.03 0-9.76-4.85-3.73-4.86-3.73-13.2Zm7.72.66q0 5.24 2.01 8.17 2.02 2.94 5.73 2.94 4.73 0 6.92-4.22v-14.66q-2.13-4.13-6.86-4.13-3.74 0-5.77 2.97-2.03 2.97-2.03 8.93Z" class="tp-name iconsvg-namesvg" data-gra="path-name"/><g class="tp-slogan iconsvg-slogansvg" data-gra="path-slogan"><path d="M96.22 175.51h41.6v1h-41.6zM202.2 175.51h41.58v1H202.2zM140.81 172.08v7.87h2.02c.59 0 1.11-.09 1.57-.27a3.09 3.09 0 0 0 1.86-2.03c.16-.49.24-1.05.24-1.67 0-1.26-.32-2.22-.95-2.89-.63-.68-1.56-1.01-2.77-1.01Zm1.9 7.05h-.9v-6.24h.9c.92 0 1.61.27 2.07.8.46.52.69 1.29.69 2.29s-.23 1.77-.69 2.33c-.46.55-1.15.82-2.07.82Zm5.48-7.05v7.87h4.66v-.85h-3.66v-2.86h2.98v-.85h-2.98v-2.47h3.54v-.84Zm5.24 0 2.52 7.87h1.17l2.49-7.87h-1.02l-1.26 4.25-.37 1.3-.38 1.3h-.05c-.15-.46-.28-.9-.39-1.3-.11-.4-.23-.83-.38-1.3l-1.26-4.25Zm7.26 0v7.87h4.66v-.85h-3.66v-2.86h2.99v-.85h-2.99v-2.47h3.54v-.84Zm6.33 0v7.87h4.44v-.85h-3.45v-7.02Zm8.42 8.01a3.1 3.1 0 0 0 2.43-1.11c.3-.35.53-.78.7-1.29a5.7 5.7 0 0 0 .24-1.71c0-.63-.08-1.19-.24-1.69a3.8 3.8 0 0 0-.7-1.27 3.19 3.19 0 0 0-2.43-1.09c-.49 0-.95.1-1.36.28-.41.18-.77.45-1.06.8-.3.35-.53.77-.69 1.27-.17.5-.25 1.07-.25 1.7 0 .63.08 1.2.25 1.71.16.51.39.94.69 1.29.29.36.65.63 1.06.83.41.19.87.28 1.36.28Zm0-.87a2 2 0 0 1-1.68-.88 3.2 3.2 0 0 1-.48-1.02 5.06 5.06 0 0 1 0-2.66c.11-.39.27-.73.48-1a1.99 1.99 0 0 1 1.68-.85c.35 0 .67.07.96.22.28.15.52.36.73.63.2.27.36.61.47 1a5.06 5.06 0 0 1 0 2.66c-.11.39-.27.73-.47 1.02-.21.28-.45.5-.73.65-.29.15-.61.23-.96.23Zm5.07-7.14v7.87h.99v-3.12h1.42c.43 0 .82-.05 1.18-.15.36-.1.66-.25.92-.45.25-.2.45-.45.59-.76.14-.3.21-.66.21-1.08 0-.43-.07-.79-.21-1.09a1.78 1.78 0 0 0-.59-.71 2.44 2.44 0 0 0-.91-.39 5.51 5.51 0 0 0-1.19-.12Zm2.29 3.93h-1.3v-3.13h1.3c.68 0 1.19.11 1.52.33.34.22.51.62.51 1.18 0 .56-.17.97-.5 1.23-.33.26-.84.39-1.53.39Zm4.62-3.93v7.87h4.65v-.85h-3.66v-2.86h2.99v-.85h-2.99v-2.47h3.54v-.84Zm7.32 3.73v-2.93h1.32c.61 0 1.09.11 1.41.31.33.21.5.58.5 1.1 0 .51-.17.89-.5 1.14-.32.25-.8.38-1.41.38Zm3.32 4.14h1.13l-1.99-3.43c.53-.14.96-.39 1.28-.76.32-.37.48-.86.48-1.47 0-.41-.07-.76-.2-1.04-.14-.28-.33-.5-.57-.68-.25-.18-.54-.3-.88-.38a5.5 5.5 0 0 0-1.11-.11h-2.46v7.87h1v-3.32h1.43Z"/></g></g></g></svg>